<?xml version="1.0" encoding="iso-8859-1"?>
<!-- Generator: Adobe Illustrator 19.1.1, SVG Export Plug-In . SVG Version: 6.00 Build 0)  -->
<svg version="1.1"  xmlns="http://www.w3.org/2000/svg" xmlns:xlink="http://www.w3.org/1999/xlink" x="0px" y="0px"
	 viewBox="0 0 48 48" style="enable-background:new 0 0 48 48;" xml:space="preserve">
<g>
	<path style="fill:#FFBA57;" d="M33.078,17.115l-11.505-5.631c-0.019-0.008-0.039-0.01-0.059-0.017
		c-1.508-0.855-3.446-0.489-4.513,0.935l-6.3,6.998c-1.16,1.545-0.847,3.74,0.7,4.9c0.49,0.369,1.047,0.583,1.615,0.662L13.001,25
		l7.422,2.488l2.705,7.215C23.43,35.504,24.191,36,25.001,36c0.233,0,0.471-0.042,0.702-0.127c1.034-0.388,1.559-1.541,1.171-2.576
		l-3-8c-0.188-0.5-0.57-0.906-1.061-1.125l-4.746-2.534c0,0,4.672-5.263,4.739-5.377l9.117,3.625C32.112,19.963,32.308,20,32.5,20
		c0.588,0,1.146-0.348,1.386-0.922C34.204,18.313,33.843,17.434,33.078,17.115z"/>
	<path style="fill:#FFBA57;" d="M25.501,4c1.933,0,3.5,1.567,3.5,3.5c0,1.932-1.567,3.5-3.5,3.5s-3.5-1.568-3.5-3.5
		C22.001,5.567,23.568,4,25.501,4"/>
</g>
<g>
	<circle style="fill:#607D8B;" cx="36.001" cy="30" r="1"/>
	<circle style="fill:#607D8B;" cx="13.001" cy="35" r="1"/>
</g>
<g>
	<circle style="fill:none;stroke:#B0BEC5;stroke-width:2;" cx="36.001" cy="30" r="7"/>
	<circle style="fill:none;stroke:#B0BEC5;stroke-width:2;" cx="13.001" cy="35" r="7"/>
</g>
<path style="fill:#DA985D;" d="M14.486,42.924c3.374,0,5.598-1.674,8.397-2.576C23.554,40.132,24.208,40,25,40s1.417,1,2,1
	c4,0,5.167-3,9-3c1.333,0,2.25,1,3,1c1.437,0,2.833-5,5-5v11H5C5,45,11.48,42.924,14.486,42.924z"/>
<path style="fill:#5C6BC0;" d="M10.701,19.4c-1.16,1.545-0.847,3.74,0.7,4.9c0.49,0.369,1.047,0.583,1.615,0.662L13.001,25
	L19,27.011V27l3.171-3.171l-4.104-2.191L10.701,19.4z"/>
<path style="fill:#5EC08F;" d="M21.573,11.484c-0.019-0.008-0.039-0.01-0.059-0.017c-1.508-0.855-3.446-0.489-4.513,0.935
	l-6.3,6.998l7.366,2.237c0,0,4.672-5.263,4.739-5.377l2.651,1.054l1.975-2.962L21.573,11.484z"/>
</svg>
